<svg xmlns="http://www.w3.org/2000/svg" width="28.149" height="28.143" viewBox="0 0 28.149 28.143"><path d="M14,38.681A7.215,7.215,0,1,0,21.218,45.9,7.2,7.2,0,0,0,14,38.681Zm0,11.906A4.691,4.691,0,1,1,18.694,45.9,4.7,4.7,0,0,1,14,50.587Zm9.194-12.2A1.683,1.683,0,1,1,21.513,36.7,1.679,1.679,0,0,1,23.2,38.386Zm4.779,1.708A8.329,8.329,0,0,0,25.7,34.2a8.383,8.383,0,0,0-5.9-2.273c-2.324-.132-9.288-.132-11.611,0a8.371,8.371,0,0,0-5.9,2.267,8.356,8.356,0,0,0-2.273,5.9c-.132,2.324-.132,9.288,0,11.611A8.329,8.329,0,0,0,2.3,57.6a8.394,8.394,0,0,0,5.9,2.273c2.324.132,9.288.132,11.611,0A8.329,8.329,0,0,0,25.7,57.6a8.383,8.383,0,0,0,2.273-5.9C28.107,49.375,28.107,42.417,27.975,40.094Zm-3,14.1A4.749,4.749,0,0,1,22.3,56.867c-1.853.735-6.248.565-8.3.565s-6.449.163-8.3-.565a4.749,4.749,0,0,1-2.675-2.675c-.735-1.853-.565-6.248-.565-8.3s-.163-6.449.565-8.3a4.749,4.749,0,0,1,2.675-2.675c1.853-.735,6.248-.565,8.3-.565s6.449-.163,8.3.565A4.749,4.749,0,0,1,24.973,37.6c.735,1.853.565,6.248.565,8.3S25.708,52.346,24.973,54.192Z" transform="translate(0.075 -31.825)" fill="#041034"/></svg>