<svg xmlns="http://www.w3.org/2000/svg" width="28.15" height="28.14" viewBox="0 0 28.15 28.14"><path d="M11.738,42.684l5.982,3.4-5.982,3.4ZM28.15,35.015v22.11a3.016,3.016,0,0,1-3.016,3.015H3.016A3.016,3.016,0,0,1,0,57.125V35.015A3.016,3.016,0,0,1,3.016,32H25.134A3.016,3.016,0,0,1,28.15,35.015ZM25.511,46.089a30.171,30.171,0,0,0-.478-5.54,2.868,2.868,0,0,0-2.023-2.035c-1.778-.484-8.935-.484-8.935-.484s-7.157,0-8.935.484a2.868,2.868,0,0,0-2.023,2.035,32.374,32.374,0,0,0,0,11.08,2.826,2.826,0,0,0,2.023,2c1.778.477,8.935.477,8.935.477s7.157,0,8.935-.484a2.826,2.826,0,0,0,2.023-2,30.079,30.079,0,0,0,.478-5.534Z" transform="translate(0 -32)" fill="#041034"/></svg>